HIERARCHY
ROOT Hips
{
    OFFSET 13.274211883544922 94.21359634399414 -18.404373168945312
    CHANNELS 6 Xposition Yposition Zposition Zrotation Xrotation Yrotation
    JOINT RightUpLeg
    {
        OFFSET -13.274211883544922 0.0 0.0
        CHANNELS 3 Zrotation Xrotation Yrotation
        JOINT RightLeg
        {
            OFFSET 0.0 -48.20266342163086 0.0
            CHANNELS 3 Zrotation Xrotation Yrotation
            JOINT RightFoot
            {
                OFFSET 0.0 -46.01093292236328 0.0
                CHANNELS 3 Zrotation Xrotation Yrotation
                End Site
                {
                    OFFSET 0.0 0.0 18.404373168945312
                }
            }
        }
    }
    JOINT LeftUpLeg
    {
        OFFSET 13.274211883544922 0.0 0.0
        CHANNELS 3 Zrotation Xrotation Yrotation
        JOINT LeftLeg
        {
            OFFSET 0.0 -48.20266342163086 0.0
            CHANNELS 3 Zrotation Xrotation Yrotation
            JOINT LeftFoot
            {
                OFFSET 0.0 -46.01093292236328 0.0
                CHANNELS 3 Zrotation Xrotation Yrotation
                End Site
                {
                    OFFSET 0.0 0.0 18.404373168945312
                }
            }
        }
    }
    JOINT Spine
    {
        OFFSET 0.0 24.77996826171875 0.0
        CHANNELS 3 Zrotation Xrotation Yrotation
        JOINT Spine3
        {
            OFFSET 0.0 25.606090545654297 0.0
            CHANNELS 3 Zrotation Xrotation Yrotation
            JOINT Neck
            {
                OFFSET 0.0 11.891084671020508 0.0
                CHANNELS 3 Zrotation Xrotation Yrotation
                End Site
                {
                    OFFSET 0.0 4.756433963775635 0.0
                }
            }
            JOINT LeftArm
            {
                OFFSET 14.002555847167969 0.0 0.0
                CHANNELS 3 Zrotation Xrotation Yrotation
                JOINT LeftForeArm
                {
                    OFFSET 29.176780700683594 0.0 0.0
                    CHANNELS 3 Zrotation Xrotation Yrotation
                    JOINT LeftHand
                    {
                        OFFSET 21.57155990600586 0.0 0.0
                        CHANNELS 3 Zrotation Xrotation Yrotation
                        End Site
                        {
                            OFFSET 8.628623962402344 0.0 0.0
                        }
                    }
                }
            }
            JOINT RightArm
            {
                OFFSET -14.002555847167969 0.0 0.0
                CHANNELS 3 Zrotation Xrotation Yrotation
                JOINT RightForeArm
                {
                    OFFSET -29.176780700683594 0.0 0.0
                    CHANNELS 3 Zrotation Xrotation Yrotation
                    JOINT RightHand
                    {
                        OFFSET -21.57155990600586 0.0 0.0
                        CHANNELS 3 Zrotation Xrotation Yrotation
                        End Site
                        {
                            OFFSET -8.628623962402344 0.0 0.0
                        }
                    }
                }
            }
        }
    }
}
MOTION
Frames: 12
Frame Time: 0.03333333333333333
0.00048646569484844804 95.02346801757812 -0.0009986826917156577 -10.691095301988918 -3.2161654379276774 10.841313664065119 17.17121726308703 4.244112516520481 -0.9252267220727808 -0.4169786478524031 9.780925970106257 -2.047745086458534 -7.951386703658792e-16 2.069018577211012e-33 -2.981770013872047e-16 21.244453820613884 -2.036445200074584 0.5988547085432944 -3.2296864903385707 10.678518154149016 -2.489584162978191 0.0 0.0 4.969616689786745e-16 -6.541217092115517 32.25517590358754 6.118928118920884 -2.042425249722579e-06 -3.3246795699078156e-06 5.887677130266036 6.246605210326204 -5.095784348112154 -163.9152954795694 123.49510740654475 -19.25383019937095 -142.58674180649476 1.4124090524555966e-06 5.381894464254372e-07 135.03497104835083 0.0 0.0 0.0 -118.85546553137587 -19.987494619088803 150.8074223236909 -2.547329125779413e-06 1.3111024270908841e-06 -128.60641363362444 3.1805546814635168e-15 0.0 0.0
0.0005249230307526886 95.02359008789062 -0.00100986217148602 -10.851272582890891 -1.6609302152182965 11.313349328833006 17.358044369429564 2.5035650729816545 -0.5494895648005899 -0.7166854196468413 9.7877303587865 -2.018141601093683 7.951386703658789e-16 1.5902773407317578e-15 1.1927080055488184e-15 21.183439022256646 -4.136882539429301 1.2059379175691043 -2.8184874891453155 10.945722522563011 -2.597815202458465 0.0 0.0 2.435112177995506e-15 -5.879394789492836 32.436479190335405 5.8310718564536295 1.3528557076121744e-06 2.614111583216499e-06 5.56734880503868 6.502553930297775 -7.9115244323050025 -163.99584200936613 124.66375005331126 -23.566481424278262 -141.5860538915322 1.42963453739792e-06 -5.762986682294718e-06 134.63043521223912 -1.7655625192200634e-31 6.3611093629270335e-15 3.1805546814635168e-15 -119.7229122390343 -21.581309209550316 147.59268454508637 -3.838095337243096e-06 1.1141837958416158e-06 -129.2603583970623 -3.1805546814635168e-15 -6.3611093629270335e-15 -1.7655625192200634e-31
0.0004171270120423287 95.02371215820312 -0.0010948693379759789 -11.231057258520146 -0.931479777040007 10.158590371977402 17.65720837755978 2.1989957409493184 -0.47938677483445324 -0.5250619830841052 9.319796823881651 -1.946411595994493 -9.051956275298177e-34 -4.9696166897867443e-17 -2.0872390097104326e-15 21.422253142183937 -4.469239200497232 1.2924604013683667 -2.529101610010314 10.565466733833215 -2.541641071961519 0.0 0.0 1.9878466759146984e-15 -5.371799328379992 32.1898412821047 5.706778631723044 1.4733765617694042e-06 3.124307365824419e-06 5.652880603127955 6.227546634710365 -10.399352229870368 -164.26820192940295 127.7797035763135 -28.129280942378966 -140.19118706634526 2.7497328658974723e-06 -7.504920562925497e-07 132.56889037277745 0.0 0.0 1.5902773407317584e-15 -118.43192595427067 -20.685126611442875 145.48555923596817 -6.251648793501891e-06 2.9071765901295824e-06 -128.1773651990264 -3.1805546814635168e-15 0.0 0.0
0.00048609953955747187 95.0238265991211 -0.0011156494729220867 -10.94419913405693 -0.18917732600835638 9.866814958738479 17.262488682470845 1.5212213380057606 -0.3250213693182036 -0.36974629726993175 9.250107548828055 -1.9269173914986204 -4.310455369189608e-34 4.969616689786746e-17 9.939233379573492e-16 20.847984691131913 -4.916728677708072 1.3873813827108201 -2.0556474628644708 10.102836893067485 -2.449423899607057 0.0 0.0 1.987846675914698e-15 -5.592978794021452 32.5827677962355 5.7773492275199265 9.149970569721341e-07 -5.664119332815425e-06 5.992904336763878 7.055052374866099 -12.754322482416589 -165.46929777283188 129.35479615430177 -31.726001122162543 -139.9547053023302 2.2102722061030231e-07 2.1069670557246802e-06 133.55609968463767 -6.3611093629270335e-15 8.827812596100317e-32 -1.5902773407317584e-15 -117.95474138217902 -21.721587123171922 142.2531579919604 -2.6533561776198672e-06 -1.3397021712068416e-06 -129.59729225127964 3.1805546814635168e-15 6.3611093629270335e-15 -7.951386703658794e-16
0.0005858904914930463 95.02385711669922 -0.0010640803957358003 -10.830830739669187 0.36650329106254254 8.94682283351182 16.641762377187682 1.8051435256587884 -0.3819008513743511 0.3710455260583116 8.83760753494891 -1.937889822889488 0.0 0.0 2.981770013872047e-16 20.44945378462722 -4.663447820334395 1.3233274487041717 -1.381047374013088 9.102805846835805 -2.337471015551511 7.758819664541295e-34 -8.945310041616142e-16 9.93923337957349e-17 -5.4583987390401 32.43967126925185 5.417055074673625 -9.359551504927134e-07 3.4196984759783596e-06 6.884434327599934 7.303573847020023 -14.619182001473268 -165.01899825897053 129.90843253600994 -33.22414795587461 -140.0969667273295 -3.8188776983957365e-06 -3.989380251263719e-06 132.4784337305041 6.361109362927032e-15 -1.7655625192200634e-31 -3.180554681463516e-15 -117.57068517677085 -22.77114041370212 139.9170388399519 4.0809350163889755e-06 -2.5354088166542014e-06 -129.99637792622983 2.2069531490250793e-31 6.3611093629270335e-15 -3.975693351829396e-15
0.0005064774886704981 95.02368927001953 -0.0011007734574377537 -11.145217585515391 0.041905322263304255 7.461855217888744 17.02807974613277 2.8928965968314855 -0.6237743126070049 0.10128203856984369 8.523087436338773 -1.8549913610933157 7.951386703658792e-16 1.5405811738338909e-15 -1.0689929315590228e-32 20.349670810432404 -3.6236218170337975 1.007388664875123 -0.4081519172898592 8.276471983183978 -2.233682720187371 -1.3793457181406746e-33 7.951386703658792e-16 1.987846675914698e-16 -4.345188196241385 32.51298127699913 4.927744757248008 -1.070324442367329e-06 1.6716840207744929e-07 7.262403290924473 7.915862986253987 -14.860596816240376 -163.05886274945928 128.83938094138145 -31.87727691723484 -140.58120455435795 -5.347596784472237e-07 -4.6742202362861594e-07 130.4049426748782 6.3611093629270335e-15 6.3611093629270335e-15 1.590277340731758e-15 -117.64803020337587 -24.538544259633046 137.9153655932566 -2.191691871121447e-06 -1.301105252556428e-07 -130.07228225296453 6.3611093629270335e-15 -6.3611093629270335e-15 2.7829853462805776e-15
0.0005329913692548871 95.02360534667969 -0.0010749594075605273 -11.08214318787589 -0.7680325275627082 6.371693915052245 16.827434746010795 3.747561315801278 -0.8178959253261017 0.10013234406521584 8.826410726321214 -1.9383533944133589 -4.138037154422024e-33 -1.5902773407317582e-15 -2.9817700138720465e-16 20.219287754961805 -2.378356155039218 0.6694695614030143 -0.08668922655909454 8.537692796284649 -2.388548152644698 1.5902773407317584e-15 2.758691436281349e-33 1.987846675914698e-16 -3.9122374941988407 33.312378266321346 4.612081076415527 -7.06990279678889e-07 9.82456377897931e-07 8.28402652002433 8.872093996022826 -14.332443116698784 -161.336486816568 129.7806722749445 -31.55216971151349 -140.36140935542602 -5.257528490247293e-07 -2.154730423834033e-06 130.3951894612434 -6.361109362927032e-15 8.827812596100317e-32 -1.590277340731758e-15 -118.88768079354658 -26.798447339400923 136.13734283064102 -3.21593115735365e-06 -8.995530778156928e-07 -131.29701061331087 -6.361109362927035e-15 -4.4139062980501586e-32 7.951386703658794e-16
0.0005580410943366587 95.02349853515625 -0.0010691408533602953 -10.86114563090527 -1.3207972341500624 5.1079023795640826 16.629618050313987 4.7144545821324 -1.0201220793814425 -0.07313667938217172 9.115661656339805 -1.9521401787927553 0.0 0.0 5.963540027744094e-16 19.690945353080902 -1.3174408474373163 0.3588897128417035 0.13998383408345896 8.615662577206635 -2.3774918807553536 0.0 0.0 1.987846675914698e-16 -2.914531025463513 34.272149992153714 4.108414800663565 -4.810314360436758e-07 2.9603495852300635e-06 9.35175358411078 9.77908727483881 -15.394926201492595 -158.81188545578456 130.36424194560914 -31.47143546699531 -140.93716612151348 1.1851543567178737e-06 -4.556788488604705e-06 128.9714981854146 0.0 0.0 1.5902773407317584e-15 -119.60826853901857 -27.026247725852418 135.67931184367924 2.470327582248857e-06 2.085633125222746e-06 -131.6475197654144 0.0 0.0 4.373262687012335e-15
0.0004669865593314171 95.02339935302734 -0.0010858046589419246 -10.454330910430746 -2.492246066070875 3.2785326971723485 16.241555742084163 6.291802364680374 -1.3607233798225378 -0.22774018000976756 9.410215453134414 -1.981684437696404 1.3739576489291876e-33 1.584065319869525e-15 -9.93923337957349e-17 18.920312869279336 0.692240640150203 -0.18758201851932807 0.3277887496300199 9.223282793085085 -2.509436087545707 0.0 0.0 9.939233379573489e-17 -2.375671784113029 35.25987907816812 3.674656481788973 2.9424289163137245e-07 -1.960689550611162e-06 9.29886495983289 9.801233383771406 -14.689414519062725 -156.97330032043894 131.84184136096943 -32.421684542830114 -141.0041447436899 3.8615321297729466e-06 -3.3172643179339897e-07 126.46248802754342 0.0 0.0 -1.5902773407317582e-15 -119.91405088534691 -28.81157721545647 135.10219227212576 -3.4940201356684625e-06 2.5129188910756645e-07 -131.03550085033746 -1.1034765745125397e-32 -6.3611093629270335e-15 -1.987846675914698e-16
0.0003906615311279893 95.02330780029297 -0.0011237981962040067 -9.956908287485552 -3.6010731890179795 2.639374722095694 15.922981985153832 7.341191314811568 -1.5787201139543274 -0.2767146963275488 10.147732466193515 -2.1101514389670655 -7.951386703658792e-16 -3.1774486710324002e-15 -2.2047979213404846e-32 18.56120691607007 2.15383581330317 -0.5739015601859188 -0.1704489712774804 9.908116922281362 -2.5813359412076653 -1.077613842297402e-35 1.2424041724466862e-17 9.93923337957349e-17 -1.3298382217348335 36.16583673572838 2.9824552828063804 3.4783363740563267e-07 -2.112465395556299e-06 8.91697428331408 9.97193796178543 -13.831720945429208 -155.94948367469107 132.61462906818346 -35.27762375767568 -140.67500900941155 -1.8547602945723929e-06 -4.545236896844357e-07 124.36237535811225 -1.7655625192200634e-31 -6.361109362927033e-15 -3.1805546814635164e-15 -118.96480887817164 -28.559703055949544 135.85496323903496 1.2303224854981562e-06 1.0206020278814164e-06 -131.48260099713758 -6.3611093629270335e-15 6.3611093629270335e-15 1.7890620083232284e-15
0.00023976367083378136 95.0230941772461 -0.0011436621425673366 -9.007034367349203 -4.4788214662825725 2.686036327561609 15.332666906257911 7.695078199751836 -1.5973809115154571 -0.7105996133234979 11.254606194081177 -2.1652241045161422 -7.951386703658791e-16 -6.896728590703373e-34 9.939233379573489e-17 17.197336562719517 2.5290543870948863 -0.6177067385352719 -0.27005158597937823 10.784908741834085 -2.551510754271664 2.737139159435401e-33 1.5778532990072915e-15 -1.987846675914698e-16 -0.09498325628937027 38.12508487337933 2.242872330212246 -3.8703081861636517e-07 1.3358166557121533e-06 8.4724113368211 8.015919940131937 -13.918148366693293 -158.5800918514917 134.63876463226032 -36.808336511771884 -138.4724596556999 -3.8808016782573763e-07 -1.6513566957694243e-06 117.2135602853401 0.0 0.0 0.0 -118.28664192660626 -26.152727745070322 136.91757001249286 1.2085421786158589e-06 2.4079218737439017e-07 -128.33106530641993 -6.3611093629270335e-15 -3.972515668245143e-31 7.156248033292914e-15
0.00018114724662154913 95.02297973632812 -0.001155539182946086 -8.915499211612529 -5.598775525265734 0.7418434892050791 15.206784572485617 8.736952528756044 -1.798391140164917 -1.4623695206590919 12.179216728463523 -2.150558490671344 7.951386703658791e-16 0.0 0.0 16.172762714563493 3.889068444619098 -0.8771376485595844 0.06742267520082916 10.818014950476554 -2.427434403993016 0.0 0.0 -9.93923337957349e-17 1.3584427330097972 39.38726283627915 1.3584914418390344 -4.188945723684759e-07 -2.823955046299367e-07 8.073280565441788 6.448805516764884 -13.10226644291463 -158.4508860541815 136.61734713414785 -38.94895724360401 -136.7859895571898 5.104558968844534e-06 1.084358105560839e-06 111.08673815984663 6.3611093629270335e-15 6.3611093629270335e-15 -3.531125038440127e-31 -116.88136187118626 -24.38073534708145 139.22026183433732 -9.810697841485409e-07 -9.662294897407878e-07 -125.6843290795277 8.827812596100317e-32 6.361109362927033e-15 -1.5902773407317582e-15
